<?xml version="1.0" encoding="UTF-8"?>
<!DOCTYPE svg  PUBLIC '-//W3C//DTD SVG 1.1//EN'  'http://www.w3.org/Graphics/SVG/1.1/DTD/svg11.dtd'>
<svg clip-rule="evenodd" fill-rule="evenodd" stroke-linejoin="round" stroke-miterlimit="2" version="1.1" viewBox="0 0 24 24" xml:space="preserve" xmlns="http://www.w3.org/2000/svg">
    <g transform="translate(.45667 .0057839)">
        <path d="m5.986 12.976v1.803c0 0.201-0.121 0.382-0.306 0.459-0.186 0.078-0.399 0.037-0.542-0.104-0.874-0.862-2.195-2.166-2.824-2.787-0.095-0.093-0.148-0.22-0.148-0.353s0.053-0.26 0.148-0.353c0.629-0.621 1.95-1.924 2.824-2.786 0.143-0.141 0.356-0.182 0.542-0.105 0.185 0.077 0.306 0.259 0.306 0.459v1.801h13.989c0.251 0 0.491 0.099 0.669 0.277 0.177 0.177 0.276 0.417 0.276 0.668v0.077c0 0.25-0.099 0.491-0.276 0.668-0.178 0.177-0.418 0.276-0.669 0.276h-13.989z" fill="#2d88fb"/>
    </g>
</svg>