<?xml version="1.0" encoding="UTF-8"?>
<!DOCTYPE svg  PUBLIC '-//W3C//DTD SVG 1.1//EN'  'http://www.w3.org/Graphics/SVG/1.1/DTD/svg11.dtd'>
<svg clip-rule="evenodd" fill-rule="evenodd" stroke-linecap="round" stroke-linejoin="round" stroke-miterlimit="1.5" version="1.1" viewBox="0 0 18 18" xml:space="preserve" xmlns="http://www.w3.org/2000/svg">
    <g transform="translate(-182.89 -375)">
        <g transform="matrix(.034657 0 0 .034657 170.92 369.91)">
            <g transform="translate(-15.415 -10.152)">
                <path d="m445.8 374.5 110.31 110.31s-0.18 0.693-0.5 1.928c-3.784 14.586-1.213 30.092 7.076 42.676s21.52 21.068 36.415 23.35c0.016 3e-3 0.025 4e-3 0.025 4e-3l-0.029 49.855 82.516 7.69 67.508-64.324s-1e-3 -0.011-2e-3 -0.032c-1.895-21.812-20.347-38.438-42.238-38.055-11.977 0.209-22.075 0.386-22.075 0.386v-0.054c0.058-22.858-8.981-44.801-25.123-60.985-16.143-16.184-38.062-25.28-60.92-25.28h-63.754l0.219-44.692h1.76c34.677 1e-3 62.801-28.088 62.845-62.765v-8e-3l49.251-0.175s1.059-0.294 2.876-0.799c12.733-3.536 23.404-12.242 29.424-24.006 6.021-11.763 6.842-25.51 2.264-37.906-8e-3 -0.02-0.011-0.03-0.011-0.03l-77.4-34.819-109.13 64.996-51.306 92.732z" fill="#b9bdce"/>
                <g transform="matrix(1.0042 0 0 1.0042 -75.939 -29.831)">
                    <circle cx="693.66" cy="449.92" r="193.73" fill="none" stroke="#b9bdce" stroke-width="38.56px"/>
                </g>
            </g>
            <rect x="345.51" y="146.8" width="519.38" height="519.38" fill="none"/>
        </g>
    </g>
</svg>
