<?xml version="1.0" encoding="UTF-8"?>
<!DOCTYPE svg  PUBLIC '-//W3C//DTD SVG 1.1//EN'  'http://www.w3.org/Graphics/SVG/1.1/DTD/svg11.dtd'>
<svg clip-rule="evenodd" fill-rule="evenodd" stroke-linecap="round" stroke-linejoin="round" stroke-miterlimit="1.5" version="1.1" viewBox="0 0 18 18" xml:space="preserve" xmlns="http://www.w3.org/2000/svg">
    <g transform="translate(-159.38 -374.5)">
        <g transform="matrix(.052941 0 0 .052941 141.16 363.47)">
            <path d="m639.74 333.45c0-3.986-1.584-7.808-4.402-10.627-2.819-2.818-6.642-4.402-10.627-4.402h-224.4c-3.986 0-7.809 1.584-10.627 4.402-2.819 2.819-4.402 6.641-4.402 10.627v153.4c0 3.986 1.583 7.808 4.402 10.627 2.818 2.818 6.641 4.402 10.627 4.402h224.4c3.985 0 7.808-1.584 10.627-4.402 2.818-2.819 4.402-6.641 4.402-10.627v-153.4zm-84.474-57.525c0-8.3-6.729-15.029-15.029-15.029h-55.452c-8.3 0-15.029 6.729-15.029 15.029v42.496h85.51v-42.496z" fill="none" stroke="#b9bdce" stroke-width="28px"/>
            <g transform="matrix(.92664 0 0 1.5103 40.241 -171.15)">
                <rect x="327.8" y="251.3" width="366.92" height="225.12" fill="none"/>
            </g>
        </g>
    </g>
</svg>
